<svg width="232" height="52" viewBox="0 0 232 52" fill="none" xmlns="http://www.w3.org/2000/svg">
<path d="M38.6875 26.6875C39.4479 26.9896 40.0469 27.224 40.4844 27.3906C40.9219 27.5573 41.3802 27.7031 41.8594 27.8281C41.9948 27.4844 42.0625 27.0156 42.0625 26.4219C42.0625 25.6198 42.0052 24.151 41.8906 22.0156C41.724 19.1615 41.6406 16.974 41.6406 15.4531C41.6406 14.401 41.6719 13.4948 41.7344 12.7344L39.1562 12.5781L39.1094 17.5C38.3281 17.7604 37.4479 17.8906 36.4688 17.8906C36.2188 17.8906 36.0312 17.8854 35.9062 17.875C35.5625 17.6042 35.2031 17.1771 34.8281 16.5938C34.4635 16.0104 34.1615 15.3542 33.9219 14.625C33.6823 13.8958 33.5625 13.1927 33.5625 12.5156C33.5625 11.349 33.7552 10.4583 34.1406 9.84375C34.526 9.22917 35.0677 8.80729 35.7656 8.57812C36.4635 8.33854 37.3958 8.18229 38.5625 8.10938C40.375 8.00521 42.5052 7.92708 44.9531 7.875C47.4115 7.8125 49.7604 7.78125 52 7.78125C52.3021 8.16667 52.526 8.59896 52.6719 9.07812C52.8281 9.55729 52.9062 10.0365 52.9062 10.5156C52.9062 11.4115 52.6771 12.1615 52.2188 12.7656C51.7604 13.3698 51.0833 13.6719 50.1875 13.6719C49.6042 13.6719 48.901 13.5677 48.0781 13.3594C47.8906 18.2552 47.6198 22.776 47.2656 26.9219C47.1927 27.724 47.0729 28.4323 46.9062 29.0469C46.7396 29.6615 46.4844 30.1979 46.1406 30.6562C45.7135 31.2188 45.125 31.6354 44.375 31.9062C43.625 32.1771 42.7969 32.3125 41.8906 32.3125C41.0365 32.3125 40.1927 32.1615 39.3594 31.8594C38.5365 31.5573 37.9167 31 37.5 30.1875C37.5104 29.5104 37.5938 28.9115 37.75 28.3906C37.9062 27.8594 38.2188 27.2917 38.6875 26.6875ZM52.6719 22.9219C52.6719 21.1198 52.974 19.5104 53.5781 18.0938C54.1823 16.6771 55.1146 15.5573 56.375 14.7344C57.6458 13.901 59.2292 13.4844 61.125 13.4844C62.1146 13.4844 63.1042 13.6042 64.0938 13.8438C65.0833 14.0729 65.9219 14.4583 66.6094 15C67.2448 15.5104 67.7031 16.1875 67.9844 17.0312C68.276 17.8646 68.4219 18.7917 68.4219 19.8125C68.4219 20.4896 68.3646 21.1823 68.25 21.8906C68.125 22.099 67.8802 22.375 67.5156 22.7188C67.151 23.0521 66.724 23.3802 66.2344 23.7031C65.7448 24.026 65.2708 24.276 64.8125 24.4531C64.375 24.4844 63.9219 24.5 63.4531 24.5C62.6302 24.5 61.7969 24.4635 60.9531 24.3906C60.1094 24.3177 59.3698 24.2344 58.7344 24.1406C58.8177 25.026 59.0885 25.7969 59.5469 26.4531C60.0052 27.1094 60.7344 27.4375 61.7344 27.4375C61.8281 27.4375 61.9792 27.4271 62.1875 27.4062C62.8229 27.3438 63.5625 27.1771 64.4062 26.9062C65.2604 26.625 66.1094 26.3021 66.9531 25.9375C67.349 26.3333 67.6406 26.7292 67.8281 27.125C68.0156 27.5208 68.1458 28.0885 68.2188 28.8281C67.8958 29.2031 67.3698 29.6615 66.6406 30.2031C65.9219 30.7448 65.0417 31.2344 64 31.6719C62.9583 32.099 61.8698 32.3125 60.7344 32.3125C59.026 32.3125 57.5625 31.901 56.3438 31.0781C55.1354 30.2448 54.2188 29.1198 53.5938 27.7031C52.9792 26.276 52.6719 24.6823 52.6719 22.9219ZM62.7344 19.3281C62.5885 19.1719 62.3438 19.0521 62 18.9688C61.6562 18.875 61.2969 18.8281 60.9219 18.8281C60.6198 18.8281 60.3125 18.8542 60 18.9062C59.6979 18.9583 59.5156 19.0156 59.4531 19.0781C59.099 19.776 58.875 20.5677 58.7812 21.4531L62.9531 21.0469L62.7344 19.3281ZM70.3906 22.9219C70.3906 21.1198 70.6927 19.5104 71.2969 18.0938C71.901 16.6771 72.8333 15.5573 74.0938 14.7344C75.3646 13.901 76.9479 13.4844 78.8438 13.4844C79.4896 13.4844 80.2292 13.526 81.0625 13.6094C81.9062 13.6823 82.7135 13.7969 83.4844 13.9531L83.7969 14.1719C84.2656 14.4948 84.6094 14.7552 84.8281 14.9531C85.0573 15.1406 85.2969 15.4062 85.5469 15.75C85.5469 16.3125 85.4688 17.0885 85.3125 18.0781C85.1667 19.0573 84.9792 19.9688 84.75 20.8125C84.5208 21.6562 84.3021 22.1979 84.0938 22.4375C83.75 22.6146 83.1927 22.7031 82.4219 22.7031C82.0469 22.7031 81.6927 22.6771 81.3594 22.625C81.0365 22.5625 80.7917 22.4844 80.625 22.3906L80.2969 19.5C80.1406 19.3229 79.7812 19.1823 79.2188 19.0781C78.6667 18.9635 78.1562 18.9062 77.6875 18.9062C77.5417 18.9062 77.4062 18.9167 77.2812 18.9375C77.0417 19.4271 76.8594 20.0521 76.7344 20.8125C76.6094 21.5729 76.5469 22.349 76.5469 23.1406C76.5469 24.2865 76.7344 25.2604 77.1094 26.0625C77.4844 26.8542 78.25 27.25 79.4062 27.25C79.9792 27.25 80.5417 27.1562 81.0938 26.9688C81.6562 26.7812 82.3646 26.4948 83.2188 26.1094C83.5729 25.9427 83.8385 25.8229 84.0156 25.75C84.4323 26.1667 84.7604 26.6042 85 27.0625C85.2396 27.5208 85.3958 28.1094 85.4688 28.8281C84.8021 29.6094 83.8646 30.3854 82.6562 31.1562C81.4583 31.9271 80.0573 32.3125 78.4531 32.3125C76.7448 32.3125 75.2812 31.901 74.0625 31.0781C72.8542 30.2448 71.9375 29.1198 71.3125 27.7031C70.6979 26.276 70.3906 24.6823 70.3906 22.9219ZM88.375 21.8438C88.375 17.0104 88.4688 13.6875 88.6562 11.875L86.8906 11.5625C86.6406 10.6042 86.5156 9.57292 86.5156 8.46875C86.6719 8.27083 86.9635 8.02604 87.3906 7.73438C87.8177 7.44271 88.3125 7.1875 88.875 6.96875C89.4479 6.75 90.0156 6.64062 90.5781 6.64062C91.8594 6.64062 92.8125 6.96875 93.4375 7.625C94.0625 8.28125 94.375 9.28646 94.375 10.6406C94.375 11.2344 94.3229 12.1927 94.2188 13.5156C94.1146 14.8281 93.9635 16.2396 93.7656 17.75C93.5677 19.25 93.3385 20.5885 93.0781 21.7656C93.0781 21.8281 93.1146 21.8854 93.1875 21.9375C93.2604 21.9896 93.3385 22.0156 93.4219 22.0156C93.5156 22.0156 93.5781 21.9792 93.6094 21.9062C94.026 20.25 94.4427 18.8646 94.8594 17.75C95.276 16.6354 95.9062 15.6458 96.75 14.7812C97.5938 13.9167 98.6875 13.4844 100.031 13.4844C101.698 13.4844 102.896 13.9948 103.625 15.0156C104.354 16.026 104.719 17.3021 104.719 18.8438C104.719 20.2188 104.557 21.5469 104.234 22.8281C103.911 24.099 103.51 25.4271 103.031 26.8125C103.052 26.7604 102.979 26.9635 102.812 27.4219L102.844 27.4531L105.156 26.4844C105.969 27.1823 106.443 28.1094 106.578 29.2656C106.578 29.3385 106.344 29.6406 105.875 30.1719C105.406 30.6927 104.786 31.1823 104.016 31.6406C103.255 32.0885 102.38 32.3125 101.391 32.3125C100.401 32.3125 99.5938 32.0469 98.9688 31.5156C98.3438 30.9844 98.0312 30.0781 98.0312 28.7969C98.0312 27.776 98.0729 26.4115 98.1562 24.7031C98.2396 22.9948 98.3229 21.6198 98.4062 20.5781C98.1354 20.2865 97.8021 20.1302 97.4062 20.1094C97.0417 20.5781 96.5052 21.5156 95.7969 22.9219C95.0885 24.3281 94.5885 25.3802 94.2969 26.0781C94.276 26.224 94.2656 26.3646 94.2656 26.5C94.2656 27.0208 94.3438 27.724 94.5 28.6094C94.6562 29.4844 94.849 30.3021 95.0781 31.0625C94.8906 31.4167 94.5052 31.7135 93.9219 31.9531C93.3385 32.1927 92.6198 32.3125 91.7656 32.3125C90.9948 32.3125 90.375 32.25 89.9062 32.125C89.4479 32 89.125 31.8698 88.9375 31.7344C88.75 31.5885 88.6562 31.5 88.6562 31.4688C88.6458 31.375 88.6198 31.1302 88.5781 30.7344C88.5365 30.3281 88.4948 29.7656 88.4531 29.0469C88.4115 28.3177 88.3906 27.4896 88.3906 26.5625L88.375 21.8438ZM107.922 26.9844C108.016 27.0156 108.214 27.0885 108.516 27.2031C108.828 27.3073 109.172 27.3958 109.547 27.4688V12.75L107.094 11.9219C106.854 11.3594 106.734 10.7135 106.734 9.98438C106.734 9.39062 106.828 8.85938 107.016 8.39062C107.766 8.19271 108.667 8.04167 109.719 7.9375C110.781 7.82292 111.807 7.76562 112.797 7.76562C114.266 7.76562 115.562 7.875 116.688 8.09375C117.208 9.10417 117.979 11.0052 119 13.7969C120.031 16.5885 121.271 20.25 122.719 24.7812L122.984 24.75C122.682 22.1771 122.38 19.1615 122.078 15.7031C121.786 12.2344 121.641 9.85938 121.641 8.57812C122.182 8.32812 122.786 8.13542 123.453 8C124.12 7.85417 124.734 7.78125 125.297 7.78125C126.214 7.78125 127.094 7.96875 127.938 8.34375L126.422 28.0938C126.964 28.875 127.302 29.7917 127.438 30.8438C127.01 31.3125 126.359 31.6771 125.484 31.9375C124.62 32.1875 123.698 32.3125 122.719 32.3125C121.958 32.3125 121.266 32.2344 120.641 32.0781C120.026 31.9219 119.547 31.6823 119.203 31.3594C119.214 30.5781 119.281 29.8646 119.406 29.2188C118.625 27.6562 117.87 25.9375 117.141 24.0625C116.422 22.1771 115.505 19.6771 114.391 16.5625L113.703 14.6562L113.609 14.6719C113.828 16.2969 114.062 18.6927 114.312 21.8594C114.562 25.0156 114.688 27.3229 114.688 28.7812C114.688 29.9479 114.339 30.8281 113.641 31.4219C112.953 32.0156 111.875 32.3125 110.406 32.3125C109.948 32.3125 109.458 32.224 108.938 32.0469C108.417 31.8698 107.943 31.6458 107.516 31.375C107.099 31.0938 106.807 30.8229 106.641 30.5625C106.641 29.8125 106.755 29.099 106.984 28.4219C107.214 27.7448 107.526 27.2656 107.922 26.9844ZM130.078 22.9219C130.078 21.1198 130.38 19.5104 130.984 18.0938C131.589 16.6771 132.521 15.5573 133.781 14.7344C135.052 13.901 136.635 13.4844 138.531 13.4844C139.521 13.4844 140.51 13.6042 141.5 13.8438C142.49 14.0729 143.328 14.4583 144.016 15C144.651 15.5104 145.109 16.1875 145.391 17.0312C145.682 17.8646 145.828 18.7917 145.828 19.8125C145.828 20.4896 145.771 21.1823 145.656 21.8906C145.531 22.099 145.286 22.375 144.922 22.7188C144.557 23.0521 144.13 23.3802 143.641 23.7031C143.151 24.026 142.677 24.276 142.219 24.4531C141.781 24.4844 141.328 24.5 140.859 24.5C140.036 24.5 139.203 24.4635 138.359 24.3906C137.516 24.3177 136.776 24.2344 136.141 24.1406C136.224 25.026 136.495 25.7969 136.953 26.4531C137.411 27.1094 138.141 27.4375 139.141 27.4375C139.234 27.4375 139.385 27.4271 139.594 27.4062C140.229 27.3438 140.969 27.1771 141.812 26.9062C142.667 26.625 143.516 26.3021 144.359 25.9375C144.755 26.3333 145.047 26.7292 145.234 27.125C145.422 27.5208 145.552 28.0885 145.625 28.8281C145.302 29.2031 144.776 29.6615 144.047 30.2031C143.328 30.7448 142.448 31.2344 141.406 31.6719C140.365 32.099 139.276 32.3125 138.141 32.3125C136.432 32.3125 134.969 31.901 133.75 31.0781C132.542 30.2448 131.625 29.1198 131 27.7031C130.385 26.276 130.078 24.6823 130.078 22.9219ZM140.141 19.3281C139.995 19.1719 139.75 19.0521 139.406 18.9688C139.062 18.875 138.703 18.8281 138.328 18.8281C138.026 18.8281 137.719 18.8542 137.406 18.9062C137.104 18.9583 136.922 19.0156 136.859 19.0781C136.505 19.776 136.281 20.5677 136.188 21.4531L140.359 21.0469L140.141 19.3281ZM149.391 26.4844C150.307 26.849 151.042 27.1302 151.594 27.3281C152.146 27.526 152.75 27.6979 153.406 27.8438C154.073 27.9896 154.734 28.0625 155.391 28.0625C155.682 28.0625 155.891 28.0365 156.016 27.9844C156.047 27.9427 156.073 27.8802 156.094 27.7969C156.125 27.7031 156.141 27.6094 156.141 27.5156C156.141 27.3073 156.021 27.1354 155.781 27C155.406 26.7917 154.74 26.4635 153.781 26.0156C152.469 25.3906 151.427 24.8333 150.656 24.3438C149.896 23.8542 149.25 23.2031 148.719 22.3906C148.198 21.5781 147.938 20.5573 147.938 19.3281C147.938 17.5677 148.464 16.1562 149.516 15.0938C150.568 14.0208 152.234 13.4844 154.516 13.4844C157.234 13.4844 159.349 13.8385 160.859 14.5469C160.932 14.849 160.969 15.2292 160.969 15.6875C160.969 16.5625 160.833 17.4583 160.562 18.375C160.292 19.2812 159.938 19.9531 159.5 20.3906C158.906 20.1927 158.068 19.875 156.984 19.4375C156.193 19.125 155.562 18.8854 155.094 18.7188C154.635 18.5417 154.214 18.4167 153.828 18.3438C153.62 18.3958 153.453 18.5208 153.328 18.7188C153.203 18.9062 153.141 19.1302 153.141 19.3906C153.141 19.6198 153.208 19.8125 153.344 19.9688C153.479 20.125 153.63 20.25 153.797 20.3438C153.974 20.4271 154.224 20.5417 154.547 20.6875C154.714 20.7604 154.87 20.8281 155.016 20.8906C155.161 20.9427 155.297 20.9948 155.422 21.0469C156.234 21.3906 156.875 21.6719 157.344 21.8906C157.812 22.1094 158.266 22.3698 158.703 22.6719C159.505 23.224 160.135 23.8542 160.594 24.5625C161.052 25.2708 161.281 26.0469 161.281 26.8906C161.281 28.0573 160.948 29.0677 160.281 29.9219C159.625 30.7656 158.781 31.3802 157.75 31.7656C157.208 31.9635 156.615 32.1042 155.969 32.1875C155.333 32.2812 154.589 32.3281 153.734 32.3281C152.724 32.3281 151.682 32.1354 150.609 31.75C149.547 31.3542 148.734 30.6979 148.172 29.7812C148.182 29.1458 148.266 28.5938 148.422 28.125C148.589 27.6458 148.911 27.099 149.391 26.4844ZM164.297 23.375C164.297 21.6771 164.323 20.1302 164.375 18.7344L162.672 18.4375C162.536 17.9167 162.443 17.4583 162.391 17.0625C162.339 16.6667 162.312 16.2448 162.312 15.7969L162.344 15.4844C162.375 15.3385 162.391 15.2188 162.391 15.125L164.656 14.625C164.708 13.9792 164.828 13.25 165.016 12.4375C165.203 11.625 165.401 11.026 165.609 10.6406C165.943 10.3906 166.344 10.2031 166.812 10.0781C167.281 9.95312 167.786 9.89062 168.328 9.89062C168.786 9.89062 169.229 9.9375 169.656 10.0312C170.094 10.1146 170.474 10.2292 170.797 10.375C170.828 10.7292 170.844 11.1354 170.844 11.5938C170.844 12.3438 170.807 13.1927 170.734 14.1406L173.484 13.6406C173.87 14.3073 174.062 15.0312 174.062 15.8125C174.062 16.3542 173.995 16.8438 173.859 17.2812C173.734 17.7188 173.557 18.2135 173.328 18.7656C172.641 18.8802 171.698 18.9531 170.5 18.9844C170.354 20.6823 170.031 23.1771 169.531 26.4688L169.453 27L169.484 27.0312L173.156 25.8906C173.917 26.526 174.38 27.5052 174.547 28.8281C174.547 28.901 174.208 29.2448 173.531 29.8594C172.865 30.4635 172.026 31.026 171.016 31.5469C170.005 32.0573 168.906 32.3125 167.719 32.3125C165.646 32.3125 164.542 31.0469 164.406 28.5156C164.333 27.2344 164.297 25.5208 164.297 23.375Z" fill="#323232"/>
<path d="M12.5 2C10.4925 2 8.92285 3.54941 7.87842 5.41737C7.08216 6.84147 6.5588 8.48562 6.35254 10.002L3.33496 10.7197L0 32.0769L19.165 36L30 33.4868L26.665 9.84615L24.165 9.19231L21.665 6.35727L19.0503 6.98047C18.911 6.47508 18.7375 5.9738 18.5034 5.50676C17.9184 4.33937 16.9529 3.30769 15.625 3.30769C15.4255 3.30769 15.2392 3.34635 15.0513 3.37921C14.9028 3.16399 14.7403 2.9589 14.5483 2.78155C14.0223 2.29557 13.313 2 12.5 2ZM12.5 3.30769C13.0445 3.30769 13.4063 3.4693 13.7207 3.75977C13.7484 3.7854 13.7695 3.82875 13.7964 3.85682C13.4011 4.09892 13.0368 4.3942 12.7271 4.74309C11.9941 5.56858 11.4661 6.61311 11.0693 7.63942C10.8915 8.09941 10.7481 8.55079 10.6201 8.98543L7.69043 9.68269C7.91711 8.47823 8.34199 7.17973 8.95752 6.07888C9.87902 4.43078 11.1213 3.30769 12.5 3.30769ZM15.6689 4.6256C16.3513 4.64942 16.9353 5.19737 17.395 6.11463C17.572 6.46783 17.7099 6.86676 17.8247 7.27163L16.1987 7.6573C16.1352 6.62078 15.9935 5.56409 15.6689 4.6256ZM14.4434 4.95763C14.4582 4.99743 14.478 5.0264 14.4922 5.06746C14.7729 5.87748 14.907 6.914 14.9634 7.95102L12.0581 8.64318C12.1176 8.47017 12.1617 8.30387 12.229 8.12981C12.5905 7.19458 13.0693 6.27757 13.6426 5.63191C13.895 5.34763 14.1618 5.12717 14.4434 4.95763ZM13.9111 13.3299C14.3049 13.3299 14.6698 13.3519 15.0098 13.3938C15.3535 13.4356 15.6673 13.4992 15.9448 13.5777C16.2261 13.6548 16.4675 13.7452 16.665 13.8433L15.4639 17.4216C15.3051 17.3444 15.1136 17.2624 14.9023 17.1892C14.6886 17.112 14.4567 17.0386 14.1992 16.9797C13.948 16.9209 13.6737 16.8706 13.3887 16.8418C13.1037 16.813 12.8027 16.8044 12.4927 16.8214C12.2077 16.8384 11.9536 16.8885 11.7261 16.9669C11.5023 17.0441 11.3038 17.1541 11.145 17.2862C10.9863 17.4209 10.804 17.5782 10.7178 17.7613C10.6278 17.9443 10.4834 18.1158 10.4834 18.6833C10.4834 19.3476 10.9037 19.818 11.46 20.1698C12.71 20.9609 14.9951 22.2681 14.9951 25.5844C14.9951 26.6188 14.7161 27.5057 14.3311 28.2432C13.9523 28.9703 13.4303 29.5412 12.8003 29.957C12.184 30.3611 11.4708 30.6149 10.6958 30.7156C9.94205 30.8137 9.37867 30.7708 8.54492 30.593C8.53867 30.593 8.5292 30.5904 8.52295 30.5904C8.5167 30.5904 8.50961 30.5853 8.50586 30.5853C8.49961 30.5853 8.49014 30.5828 8.48389 30.5828C8.47764 30.5828 8.46816 30.5777 8.46191 30.5777C8.07191 30.4874 7.69381 30.3677 7.34131 30.2278C6.99131 30.0905 6.66219 29.9355 6.36719 29.7629C6.07219 29.5942 5.80623 29.4173 5.57373 29.2342C5.34623 29.0538 5.15125 28.8633 5 28.6698L5.92041 25.6994C6.07541 25.8262 6.26693 25.9717 6.48193 26.1208C6.70193 26.2725 6.94703 26.4239 7.20703 26.5678C7.47328 26.7129 7.75563 26.8436 8.04688 26.9534C8.34188 27.0633 8.64775 27.1517 8.94775 27.1935C9.214 27.2314 9.45189 27.2265 9.66064 27.1807C9.86939 27.135 10.0515 27.0494 10.1978 26.9304C10.3465 26.8154 10.462 26.6662 10.542 26.4962C10.622 26.3236 10.6663 26.1358 10.6738 25.9318C10.6838 25.7278 10.6628 25.5338 10.6128 25.3495C10.559 25.1625 10.4729 24.9833 10.3491 24.8029C10.2254 24.6224 10.0645 24.4408 9.86328 24.2538C9.66203 24.0668 9.42074 23.8767 9.13574 23.674C8.78199 23.4177 8.45641 23.1675 8.06641 22.8184C7.75516 22.5411 7.4976 22.1855 7.2876 21.835C7.07885 21.4885 6.91295 21.1141 6.8042 20.7061C6.69545 20.3021 6.64867 19.8655 6.66992 19.3882C6.70617 18.5918 6.86861 17.856 7.14111 17.1917C7.41986 16.5235 7.81197 15.9255 8.30322 15.409C8.80447 14.882 9.41344 14.4336 10.1172 14.0936C10.8422 13.7431 11.7754 13.5318 12.6904 13.4168C13.1154 13.3553 13.5261 13.3299 13.9111 13.3299Z" fill="#2563EB"/>
</svg>
